# xmcd CD database file
#
# Track frame offsets:
#	183
#	15808
#	30390
#	43238
#	56173
#	69908
#	82185
#	94645
#	106923
#	119455
#	130523
#	141793
#	152453
#	165258
#	175758
#	187933
#	199208
#
# Disc length: 2812 seconds
#
# Revision: 0
# Processed by: cddbd v1.4PL0 Copyright (c) Steve Scherf et al.
# Submitted via: CDex 1.50beta9
#
DISCID=ce0afa11
DTITLE=Elmore James - 16 Great Songs Vol.2
DYEAR=1900
DGENRE=Blues
TTITLE0=I Believe 
TTITLE1=1839 Blues 
TTITLE2=Sinful Woman 
TTITLE3=Baby Whats Wrong 
TTITLE4=Hand In Hand 
TTITLE5=Cry For Me Baby 
TTITLE6=Dark And Deary 
TTITLE7=Got To Move 
TTITLE8=Early In The Morning 
TTITLE9=Person To Person 
TTITLE10=Rollin' And Tumblin' 
TTITLE11=Cant Stop Lovin' 
TTITLE12=I Was A Fool 
TTITLE13=I Done Somebody Wrong 
TTITLE14=Mean Mistreatin' Mama 
TTITLE15=Srange Kinda Feeling 
TTITLE16=Pickin' The Blues 
EXTD=
EXTT0=
EXTT1=
EXTT2=
EXTT3=
EXTT4=
EXTT5=
EXTT6=
EXTT7=
EXTT8=
EXTT9=
EXTT10=
EXTT11=
EXTT12=
EXTT13=
EXTT14=
EXTT15=
EXTT16=
PLAYORDER=
